<?xml version="1.0" encoding="UTF-8"?>
<svg xmlns="http://www.w3.org/2000/svg" width="171.76" height="131.55" xmlns:xlink="http://www.w3.org/1999/xlink" viewBox="0 0 171.76 131.55">
  <defs>
    <style>
      .cls-1 {
        fill: url(#linear-gradient-28);
      }

      .cls-1, .cls-2, .cls-3, .cls-4, .cls-5, .cls-6, .cls-7, .cls-8, .cls-9, .cls-10, .cls-11, .cls-12, .cls-13, .cls-14, .cls-15, .cls-16, .cls-17, .cls-18, .cls-19, .cls-20, .cls-21, .cls-22, .cls-23, .cls-24 {
        mix-blend-mode: multiply;
      }

      .cls-1, .cls-17, .cls-25, .cls-26 {
        opacity: .28;
      }

      .cls-27 {
        fill: url(#linear-gradient-15);
      }

      .cls-28 {
        fill: url(#linear-gradient-24);
      }

      .cls-28, .cls-29, .cls-30, .cls-31, .cls-25, .cls-32, .cls-26, .cls-33, .cls-34, .cls-35, .cls-36, .cls-37, .cls-38 {
        mix-blend-mode: screen;
      }

      .cls-2 {
        fill: url(#linear-gradient-9);
      }

      .cls-3 {
        fill: url(#linear-gradient-13);
      }

      .cls-4 {
        fill: url(#linear-gradient-47);
      }

      .cls-5 {
        fill: url(#linear-gradient-18);
        opacity: .7;
      }

      .cls-39 {
        fill: url(#linear-gradient-43);
      }

      .cls-40 {
        fill: url(#linear-gradient-25);
      }

      .cls-41 {
        fill: url(#linear-gradient-12);
      }

      .cls-42 {
        fill: #fff;
      }

      .cls-6 {
        fill: url(#linear-gradient-40);
      }

      .cls-7 {
        fill: url(#linear-gradient-26);
      }

      .cls-8 {
        fill: url(#linear-gradient-42);
      }

      .cls-43 {
        fill: url(#linear-gradient-4);
      }

      .cls-29 {
        fill: url(#radial-gradient);
        opacity: .64;
      }

      .cls-9 {
        fill: url(#linear-gradient-36);
      }

      .cls-10 {
        fill: url(#linear-gradient-48);
      }

      .cls-44 {
        fill: url(#linear-gradient-5);
      }

      .cls-45 {
        fill: url(#linear-gradient-30);
      }

      .cls-45, .cls-46, .cls-47 {
        opacity: .67;
      }

      .cls-48 {
        fill: url(#linear-gradient-22);
      }

      .cls-11 {
        fill: url(#linear-gradient-44);
      }

      .cls-12 {
        fill: url(#linear-gradient-38);
      }

      .cls-13 {
        fill: url(#linear-gradient-45);
      }

      .cls-49 {
        isolation: isolate;
      }

      .cls-50 {
        fill: url(#linear-gradient-8);
      }

      .cls-46 {
        fill: url(#linear-gradient-23);
      }

      .cls-30 {
        fill: url(#radial-gradient-3);
      }

      .cls-14 {
        fill: url(#linear-gradient-41);
      }

      .cls-51 {
        fill: #fff0d2;
      }

      .cls-15 {
        fill: url(#linear-gradient-10);
      }

      .cls-52 {
        fill: url(#linear-gradient-29);
      }

      .cls-53 {
        fill: url(#linear-gradient-20);
      }

      .cls-16 {
        fill: url(#linear-gradient-49);
      }

      .cls-31 {
        fill: url(#radial-gradient-4);
      }

      .cls-17 {
        fill: url(#linear-gradient-21);
      }

      .cls-54 {
        fill: url(#linear-gradient-19);
      }

      .cls-25 {
        fill: url(#linear-gradient-46);
      }

      .cls-32 {
        fill: url(#linear-gradient-3);
      }

      .cls-55 {
        fill: url(#linear-gradient-6);
      }

      .cls-26 {
        fill: url(#linear-gradient-11);
      }

      .cls-33 {
        fill: url(#linear-gradient-17);
      }

      .cls-34 {
        fill: url(#linear-gradient-31);
      }

      .cls-35 {
        fill: url(#linear-gradient-27);
      }

      .cls-35, .cls-37, .cls-38 {
        opacity: .69;
      }

      .cls-19 {
        fill: url(#linear-gradient-33);
      }

      .cls-47 {
        fill: url(#linear-gradient-2);
      }

      .cls-36 {
        fill: url(#radial-gradient-2);
      }

      .cls-56 {
        fill: url(#linear-gradient-32);
      }

      .cls-37 {
        fill: url(#linear-gradient-34);
      }

      .cls-57 {
        fill: url(#linear-gradient-16);
      }

      .cls-38 {
        fill: url(#linear-gradient-35);
      }

      .cls-58 {
        fill: url(#linear-gradient);
      }

      .cls-20 {
        fill: url(#linear-gradient-14);
      }

      .cls-21 {
        fill: url(#linear-gradient-50);
      }

      .cls-22 {
        fill: url(#linear-gradient-39);
      }

      .cls-23 {
        fill: url(#linear-gradient-37);
      }

      .cls-24 {
        fill: url(#linear-gradient-7);
      }
    </style>
    <linearGradient id="linear-gradient" x1="55.53" y1="98.68" x2="101.31" y2="98.68" gradientUnits="userSpaceOnUse">
      <stop offset="0" stop-color="#f60"/>
      <stop offset=".33" stop-color="#ff6e00"/>
      <stop offset=".87" stop-color="#ff8600"/>
      <stop offset="1" stop-color="#ff8e00"/>
    </linearGradient>
    <linearGradient id="linear-gradient-2" x1="57.48" y1="98.68" x2="99.37" y2="98.68" gradientUnits="userSpaceOnUse">
      <stop offset="0" stop-color="#ff8b00"/>
      <stop offset=".4" stop-color="#ffa200"/>
      <stop offset="1" stop-color="#ffce00"/>
    </linearGradient>
    <linearGradient id="linear-gradient-3" x1="78.42" y1="79.55" x2="78.42" y2="117.81" gradientUnits="userSpaceOnUse">
      <stop offset="0" stop-color="#fff"/>
      <stop offset=".14" stop-color="#c9c9c9"/>
      <stop offset=".31" stop-color="#8c8c8c"/>
      <stop offset=".48" stop-color="#5a5a5a"/>
      <stop offset=".64" stop-color="#333"/>
      <stop offset=".78" stop-color="#171717"/>
      <stop offset=".91" stop-color="#060606"/>
      <stop offset="1" stop-color="#000"/>
    </linearGradient>
    <radialGradient id="radial-gradient" cx="125.27" cy="124.91" fx="125.27" fy="124.91" r="29.27" gradientTransform="translate(-18.51 -12.01) rotate(9.19) scale(.93 .82) skewX(-1.24)" gradientUnits="userSpaceOnUse">
      <stop offset="0" stop-color="#fff325"/>
      <stop offset=".13" stop-color="#e3d820"/>
      <stop offset=".43" stop-color="#9b9416"/>
      <stop offset=".85" stop-color="#2a2806"/>
      <stop offset="1" stop-color="#000"/>
    </radialGradient>
    <linearGradient id="linear-gradient-4" x1="50.69" y1="104.48" x2="109.97" y2="104.48" gradientUnits="userSpaceOnUse">
      <stop offset="0" stop-color="#9dcbc3"/>
      <stop offset=".2" stop-color="#9dc7c3"/>
      <stop offset=".39" stop-color="#a0bbc4"/>
      <stop offset=".58" stop-color="#a4a7c5"/>
      <stop offset=".77" stop-color="#aa8cc8"/>
      <stop offset=".95" stop-color="#b169cb"/>
      <stop offset="1" stop-color="#b460cc"/>
    </linearGradient>
    <linearGradient id="linear-gradient-5" x1="50.69" y1="104.48" x2="109.97" y2="104.48" gradientUnits="userSpaceOnUse">
      <stop offset="0" stop-color="#7c00ff"/>
      <stop offset=".11" stop-color="#7c05fd"/>
      <stop offset=".25" stop-color="#7f15f8"/>
      <stop offset=".41" stop-color="#832ff0"/>
      <stop offset=".58" stop-color="#8953e6"/>
      <stop offset=".76" stop-color="#9182d8"/>
      <stop offset=".95" stop-color="#9abac7"/>
      <stop offset="1" stop-color="#9dcbc3"/>
    </linearGradient>
    <linearGradient id="linear-gradient-6" x1="48.52" y1="101.48" x2="112.14" y2="101.48" xlink:href="#linear-gradient-5"/>
    <linearGradient id="linear-gradient-7" x1="48.52" y1="101.48" x2="112.14" y2="101.48" xlink:href="#linear-gradient-5"/>
    <linearGradient id="linear-gradient-8" x1="19.4" y1="46.68" x2="81.97" y2="46.68" xlink:href="#linear-gradient-4"/>
    <linearGradient id="linear-gradient-9" x1="19.4" y1="46.68" x2="81.97" y2="46.68" xlink:href="#linear-gradient-5"/>
    <linearGradient id="linear-gradient-10" x1="19.4" y1="46.5" x2="81.97" y2="46.5" gradientUnits="userSpaceOnUse">
      <stop offset="0" stop-color="#a81ba4"/>
      <stop offset=".12" stop-color="#a720a4"/>
      <stop offset=".28" stop-color="#a630a7"/>
      <stop offset=".45" stop-color="#a54aac"/>
      <stop offset=".64" stop-color="#a26eb2"/>
      <stop offset=".83" stop-color="#9f9cba"/>
      <stop offset="1" stop-color="#9dcbc3"/>
    </linearGradient>
    <linearGradient id="linear-gradient-11" x1="22.49" y1="50.34" x2="35.04" y2="50.34" gradientUnits="userSpaceOnUse">
      <stop offset="0" stop-color="#fff"/>
      <stop offset=".15" stop-color="#cdcdcd"/>
      <stop offset=".38" stop-color="#858585"/>
      <stop offset=".59" stop-color="#4c4c4c"/>
      <stop offset=".77" stop-color="#222"/>
      <stop offset=".92" stop-color="#090909"/>
      <stop offset="1" stop-color="#000"/>
    </linearGradient>
    <linearGradient id="linear-gradient-12" x1="28.35" y1="33.57" x2="176.51" y2="33.57" gradientTransform="translate(-11.39 16.64) rotate(17.48)" xlink:href="#linear-gradient-4"/>
    <linearGradient id="linear-gradient-13" x1="175.94" y1="7.85" x2="176.41" y2="7.85" gradientTransform="translate(-11.39 16.64) rotate(17.48)" xlink:href="#linear-gradient-5"/>
    <linearGradient id="linear-gradient-14" x1="-177.89" y1="37.14" x2="231.13" y2="37.14" gradientTransform="translate(-11.39 16.64) rotate(17.48)" xlink:href="#linear-gradient-5"/>
    <linearGradient id="linear-gradient-15" x1="-56.56" y1=".34" x2="141" y2="62.56" gradientTransform="translate(121.58 -34.85) rotate(90)" gradientUnits="userSpaceOnUse">
      <stop offset="0" stop-color="#057300"/>
      <stop offset=".12" stop-color="#138900"/>
      <stop offset=".41" stop-color="#32bc00"/>
      <stop offset=".66" stop-color="#49e000"/>
      <stop offset=".87" stop-color="#57f600"/>
      <stop offset="1" stop-color="#5dff00"/>
    </linearGradient>
    <linearGradient id="linear-gradient-16" x1="-40.54" y1="5.38" x2="133.66" y2="60.25" gradientTransform="translate(121.58 -34.85) rotate(90)" gradientUnits="userSpaceOnUse">
      <stop offset="0" stop-color="#b0ff00"/>
      <stop offset="1" stop-color="#5dff00"/>
    </linearGradient>
    <linearGradient id="linear-gradient-17" x1="83.44" y1="16.45" x2="85.03" y2="61.76" gradientTransform="translate(-7.69 -.42) rotate(-6.41) scale(.88 1)" xlink:href="#linear-gradient-3"/>
    <linearGradient id="linear-gradient-18" x1="78.93" y1="42.32" x2="78.93" y2="72.1" gradientTransform="translate(.52 -.43) rotate(1.07)" gradientUnits="userSpaceOnUse">
      <stop offset="0" stop-color="#3dcd00"/>
      <stop offset=".08" stop-color="#43ce08"/>
      <stop offset=".22" stop-color="#56d321"/>
      <stop offset=".4" stop-color="#74db48"/>
      <stop offset=".6" stop-color="#9ee67f"/>
      <stop offset=".83" stop-color="#d2f3c4"/>
      <stop offset="1" stop-color="#fff"/>
    </linearGradient>
    <linearGradient id="linear-gradient-19" x1="36.77" y1="66.31" x2="128.77" y2="66.31" gradientTransform="translate(3.46 -2.72) rotate(-.94) scale(.89 1)" xlink:href="#linear-gradient-4"/>
    <linearGradient id="linear-gradient-20" x1="36.77" y1="66.31" x2="128.77" y2="66.31" gradientTransform="translate(3.46 -2.72) rotate(-.94) scale(.89 1)" xlink:href="#linear-gradient-5"/>
    <linearGradient id="linear-gradient-21" x1="57.07" y1="83.15" x2="73.76" y2="83.15" xlink:href="#linear-gradient-4"/>
    <linearGradient id="linear-gradient-22" x1="78.98" y1="41.4" x2="94.67" y2="41.4" gradientTransform="translate(-13.64 17.64) rotate(14.94)" xlink:href="#linear-gradient"/>
    <linearGradient id="linear-gradient-23" x1="80.08" y1="41.4" x2="93.56" y2="41.4" gradientTransform="translate(-13.64 17.64) rotate(14.94)" xlink:href="#linear-gradient-2"/>
    <linearGradient id="linear-gradient-24" x1="82.92" y1="37.5" x2="90.72" y2="45.31" gradientTransform="translate(-13.64 17.64) rotate(14.94)" gradientUnits="userSpaceOnUse">
      <stop offset="0" stop-color="#f8e82f"/>
      <stop offset=".38" stop-color="#8f861b"/>
      <stop offset=".68" stop-color="#423e0c"/>
      <stop offset=".89" stop-color="#121103"/>
      <stop offset="1" stop-color="#000"/>
    </linearGradient>
    <linearGradient id="linear-gradient-25" x1="50.52" y1="86.19" x2="68.95" y2="85.54" xlink:href="#linear-gradient-4"/>
    <linearGradient id="linear-gradient-26" x1="50.52" y1="86.19" x2="68.95" y2="85.54" xlink:href="#linear-gradient-5"/>
    <linearGradient id="linear-gradient-27" x1="51.87" y1="86.18" x2="66.39" y2="85.67" xlink:href="#linear-gradient-11"/>
    <linearGradient id="linear-gradient-28" x1="14.95" y1="67.92" x2="31.65" y2="67.92" xlink:href="#linear-gradient-4"/>
    <linearGradient id="linear-gradient-29" x1="34.36" y1="37.55" x2="50.05" y2="37.55" gradientTransform="translate(-13.64 17.64) rotate(14.94)" xlink:href="#linear-gradient"/>
    <linearGradient id="linear-gradient-30" x1="35.47" y1="37.55" x2="48.95" y2="37.55" gradientTransform="translate(-13.64 17.64) rotate(14.94)" xlink:href="#linear-gradient-2"/>
    <linearGradient id="linear-gradient-31" x1="38.3" y1="33.64" x2="46.11" y2="41.45" xlink:href="#linear-gradient-24"/>
    <linearGradient id="linear-gradient-32" x1="8.4" y1="70.96" x2="26.83" y2="70.31" xlink:href="#linear-gradient-4"/>
    <linearGradient id="linear-gradient-33" x1="8.4" y1="70.96" x2="26.83" y2="70.31" xlink:href="#linear-gradient-5"/>
    <linearGradient id="linear-gradient-34" x1="9.76" y1="70.95" x2="24.28" y2="70.44" xlink:href="#linear-gradient-11"/>
    <radialGradient id="radial-gradient-2" cx="54.89" cy="77.33" fx="54.89" fy="77.33" r="47.34" gradientTransform="translate(28.49 -24.99) scale(.91 .83)" gradientUnits="userSpaceOnUse">
      <stop offset="0" stop-color="#3dcc00"/>
      <stop offset=".1" stop-color="#3ac200"/>
      <stop offset=".26" stop-color="#32aa00"/>
      <stop offset=".47" stop-color="#278200"/>
      <stop offset=".71" stop-color="#164b00"/>
      <stop offset=".98" stop-color="#010500"/>
      <stop offset="1" stop-color="#000"/>
    </radialGradient>
    <radialGradient id="radial-gradient-3" cx="86.82" cy="41.4" fx="86.82" fy="41.4" r="11.45" gradientTransform="translate(-13.64 17.64) rotate(14.94)" gradientUnits="userSpaceOnUse">
      <stop offset="0" stop-color="#ffec12"/>
      <stop offset=".18" stop-color="#c3b40d"/>
      <stop offset=".4" stop-color="#7e7508"/>
      <stop offset=".6" stop-color="#484205"/>
      <stop offset=".78" stop-color="#201e02"/>
      <stop offset=".92" stop-color="#080800"/>
      <stop offset="1" stop-color="#000"/>
    </radialGradient>
    <radialGradient id="radial-gradient-4" cx="42.21" cy="37.55" fx="42.21" fy="37.55" r="11.45" xlink:href="#radial-gradient-3"/>
    <linearGradient id="linear-gradient-35" x1="40.36" y1="62.79" x2="93.8" y2="62.79" xlink:href="#linear-gradient-11"/>
    <linearGradient id="linear-gradient-36" x1="5.56" y1="78.55" x2="46.45" y2="78.55" xlink:href="#linear-gradient-5"/>
    <linearGradient id="linear-gradient-37" x1="69.58" y1="90.7" x2="79.49" y2="90.7" xlink:href="#linear-gradient-5"/>
    <linearGradient id="linear-gradient-38" x1="131.99" y1="73.59" x2="154.41" y2="73.59" xlink:href="#linear-gradient-5"/>
    <linearGradient id="linear-gradient-39" x1="78.43" y1="85.09" x2="85.92" y2="85.09" xlink:href="#linear-gradient-5"/>
    <linearGradient id="linear-gradient-40" x1="93.35" y1="92.65" x2="132.71" y2="92.65" xlink:href="#linear-gradient-5"/>
    <linearGradient id="linear-gradient-41" x1="132.07" y1="73.22" x2="154.41" y2="73.22" xlink:href="#linear-gradient-5"/>
    <linearGradient id="linear-gradient-42" x1="128.16" y1="70.11" x2="146.8" y2="70.11" xlink:href="#linear-gradient-4"/>
    <linearGradient id="linear-gradient-43" x1="109.19" y1="60.33" x2="171.76" y2="60.33" xlink:href="#linear-gradient-4"/>
    <linearGradient id="linear-gradient-44" x1="109.19" y1="60.33" x2="171.76" y2="60.33" xlink:href="#linear-gradient-5"/>
    <linearGradient id="linear-gradient-45" x1="109.19" y1="60.16" x2="171.76" y2="60.16" xlink:href="#linear-gradient-10"/>
    <linearGradient id="linear-gradient-46" x1="112.28" y1="63.99" x2="124.83" y2="63.99" xlink:href="#linear-gradient-11"/>
    <linearGradient id="linear-gradient-47" x1="93.35" y1="92.65" x2="132.32" y2="92.65" xlink:href="#linear-gradient-5"/>
    <linearGradient id="linear-gradient-48" x1="69.58" y1="90.71" x2="78.85" y2="90.71" xlink:href="#linear-gradient-5"/>
    <linearGradient id="linear-gradient-49" x1="78.43" y1="85.09" x2="85.34" y2="85.09" xlink:href="#linear-gradient-5"/>
    <linearGradient id="linear-gradient-50" x1="5.56" y1="78.38" x2="45.66" y2="78.38" xlink:href="#linear-gradient-5"/>
  </defs>
  <g class="cls-49">
    <g id="Layer_2" data-name="Layer 2">
      <g id="Layer_3" data-name="Layer 3">
        <g>
          <g>
            <circle class="cls-58" cx="78.42" cy="98.68" r="22.89"/>
            <circle class="cls-47" cx="78.42" cy="98.68" r="20.94"/>
            <circle class="cls-32" cx="78.42" cy="98.68" r="19.13"/>
            <path class="cls-42" d="M79.64,84.39c1.04,2.14-1.72,5.63-6.16,7.79s-8.9,2.19-9.94.05c-1.04-2.14,1.72-5.63,6.16-7.79,4.45-2.17,8.9-2.19,9.94-.05Z"/>
          </g>
          <path class="cls-29" d="M104.42,111.84c-2.44,13.06-16.45,21.71-31.28,19.31-14.83-2.4-24.88-14.93-22.44-27.99,2.44-13.06,16.45-21.71,31.28-19.31,14.83,2.4,24.88,14.93,22.44,27.99Z"/>
          <g>
            <ellipse class="cls-43" cx="80.33" cy="104.48" rx="29.64" ry="8.48"/>
            <g class="cls-18">
              <ellipse class="cls-44" cx="80.33" cy="104.48" rx="29.64" ry="8.48"/>
            </g>
            <g class="cls-18">
              <ellipse class="cls-55" cx="80.33" cy="101.48" rx="31.81" ry="8.48"/>
              <ellipse class="cls-24" cx="80.33" cy="101.48" rx="31.81" ry="8.48"/>
            </g>
          </g>
          <g>
            <path class="cls-50" d="M19.41,61.63c.7-11.1,9.77-30.42,62.56-35.82,0,0-36.86,14.46-37.61,34.92l-17.47,6.48c-3.78,1.4-7.73-1.56-7.47-5.57Z"/>
            <path class="cls-2" d="M19.41,61.63c.7-11.1,9.77-30.42,62.56-35.82,0,0-36.86,14.46-37.61,34.92l-17.47,6.48c-3.78,1.4-7.73-1.56-7.47-5.57Z"/>
            <path class="cls-15" d="M81.97,25.8c-47.63,8.8-55.08,41.4-55.08,41.4l17.47-6.48c.74-20.46,37.61-34.92,37.61-34.92Z"/>
            <path class="cls-26" d="M35.04,40.87s-13.43,9.07-12.51,17.29c.92,8.23,12.51-17.29,12.51-17.29Z"/>
          </g>
          <path class="cls-41" d="M154.41,76.66c.08-10.44-34.43-19.16-77.07-19.47C34.7,56.88.08,65.09,0,75.53c-.09,12.47,35.53,31.4,78.17,31.71,42.64.31,76.14-18.11,76.24-30.59Z"/>
          <g>
            <path class="cls-3" d="M154.32,77.49c.05-.28.08-.56.08-.83,0,.27-.05.55-.08.83Z"/>
            <path class="cls-20" d="M154.32,77.49c-1.08,6.25-13.68,13.01-32.76,17.28-12.23,2.74-27.12,4.45-43.34,4.33-2.52-.02-5.01-.08-7.47-.19C31.51,97.28-.07,85.36,0,75.53c-.08,11.59,30.66,28.74,69.21,31.36,1.41.1,2.83.17,4.26.23.08,0,.16,0,.24.01,1.48.06,2.96.1,4.46.11,1.26,0,2.51,0,3.75-.02.41,0,.81-.02,1.21-.03.83-.02,1.66-.05,2.49-.08.48-.02.95-.05,1.43-.07.75-.04,1.49-.08,2.23-.13.5-.03.99-.07,1.48-.11.71-.06,1.42-.12,2.13-.18.49-.05.98-.09,1.47-.15.7-.07,1.4-.15,2.1-.24.47-.06.95-.11,1.42-.17.72-.09,1.44-.2,2.15-.3.43-.06.86-.12,1.28-.19.87-.13,1.73-.28,2.58-.43.26-.04.52-.08.77-.13,1.08-.19,2.15-.4,3.2-.62.42-.09.84-.18,1.26-.27.64-.14,1.29-.28,1.92-.42.47-.11.94-.22,1.41-.34.57-.14,1.13-.27,1.69-.42.48-.12.96-.25,1.44-.38.53-.14,1.06-.29,1.59-.43.48-.13.95-.27,1.42-.41.51-.15,1.01-.3,1.51-.46.47-.14.93-.29,1.39-.44.49-.16.98-.32,1.47-.49.44-.15.89-.3,1.33-.45.51-.18,1-.36,1.5-.54.4-.15.81-.29,1.2-.44,16.12-6.15,26.51-14.57,27.34-21.42Z"/>
          </g>
          <g>
            <ellipse class="cls-27" cx="78.59" cy="44.03" rx="28.88" ry="38.19" transform="translate(33.09 121.78) rotate(-88.93)"/>
            <ellipse class="cls-57" cx="78.59" cy="44.03" rx="25.46" ry="33.68" transform="translate(33.09 121.78) rotate(-88.93)"/>
            <path class="cls-33" d="M94.62,33.67c.72,8.61-9.01,17.13-21.74,19.02-12.73,1.89-23.63-3.56-24.36-12.17s9.01-17.13,21.74-19.02c12.73-1.89,23.63,3.56,24.36,12.17Z"/>
            <path class="cls-42" d="M80.87,30.7c-.07,3.63-7.21,6.43-15.95,6.27-8.74-.16-15.77-3.24-15.7-6.86.07-3.63,7.21-6.44,15.95-6.27,8.74.16,15.77,3.24,15.7,6.86Z"/>
            <path class="cls-42" d="M109.59,32.08c-.04,2.35-2.88,4.21-6.34,4.14s-6.23-2.02-6.18-4.38c.04-2.35,2.88-4.21,6.34-4.14,3.46.06,6.23,2.02,6.18,4.38Z"/>
            <path class="cls-5" d="M78.05,72.9c17.7.33,32.75-8.5,37.31-20.77-6.76-4.93-20.56-8.47-36.56-8.77-16.24-.3-30.35,2.82-37.18,7.61,4.2,12.32,18.83,21.6,36.43,21.93Z"/>
            <path class="cls-54" d="M115.36,52.14c-1.73,5.36-17.26,12.22-36.88,12.48-19.67.26-34.68-8.94-36.85-13.65-2.34,1.39-4.24,10.14-4.21,11.72.1,5.91,18.74,12.05,41.45,11.67,22.71-.37,40.88-7.12,40.78-13.02-.03-1.58-1.9-7.9-4.28-9.21Z"/>
          </g>
          <g class="cls-18">
            <path class="cls-53" d="M115.36,52.14c-1.73,5.36-17.26,12.22-36.88,12.48-19.67.26-34.68-8.94-36.85-13.65-2.34,1.39-4.24,10.14-4.21,11.72.1,5.91,18.74,12.05,41.45,11.67,22.71-.37,40.88-7.12,40.78-13.02-.03-1.58-1.9-7.9-4.28-9.21Z"/>
          </g>
          <path class="cls-17" d="M57.07,81.63s14.06-8.07,16.41-2.7-10.41,10.45-13.01,10.28c-2.6-.17-3.4-7.58-3.4-7.58Z"/>
          <g>
            <path class="cls-48" d="M67.16,82.05c-1.12,4.19-5.42,6.67-9.6,5.56-4.19-1.12-6.67-5.42-5.56-9.6,1.12-4.19,5.42-6.67,9.6-5.56,4.19,1.12,6.67,5.42,5.56,9.6Z"/>
            <path class="cls-46" d="M66.09,81.76c-.96,3.6-4.65,5.73-8.25,4.77-3.6-.96-5.73-4.65-4.77-8.25.96-3.6,4.65-5.73,8.25-4.77s5.73,4.65,4.77,8.25Z"/>
            <path class="cls-28" d="M64.91,81.45c-.79,2.95-3.81,4.7-6.76,3.91-2.95-.79-4.7-3.81-3.91-6.76.79-2.95,3.81-4.7,6.76-3.91,2.95.79,4.7,3.81,3.91,6.76Z"/>
            <path class="cls-51" d="M60.91,73.67c-.25-.78-1.73-1.02-3.31-.52-1.58.5-2.66,1.54-2.41,2.32.25.78,1.73,1.02,3.31.52,1.58-.5,2.66-1.54,2.41-2.32Z"/>
            <path class="cls-40" d="M52.33,83.03s.95,3.16,6.21,3.05c5.26-.11,8.61-4.03,8.61-4.03,0,0,2.13,1.07,1.69,2.8s-4.68,4.99-11.3,4.55c-6.62-.45-9.06-4.04-5.2-6.36Z"/>
            <path class="cls-7" d="M52.33,83.03s.95,3.16,6.21,3.05c5.26-.11,8.61-4.03,8.61-4.03,0,0,2.13,1.07,1.69,2.8s-4.68,4.99-11.3,4.55c-6.62-.45-9.06-4.04-5.2-6.36Z"/>
            <path class="cls-35" d="M52.25,83.77s.73,3.25,6.38,2.88c5.65-.38,7.69-2.97,7.69-2.97,0,0-2.69,4.24-7.23,4.62-4.53.38-8.6-1.82-6.84-4.53Z"/>
          </g>
          <path class="cls-1" d="M14.95,66.4s14.06-8.07,16.41-2.7-10.41,10.45-13.01,10.28c-2.6-.17-3.4-7.58-3.4-7.58Z"/>
          <g>
            <path class="cls-52" d="M25.04,66.82c-1.12,4.19-5.42,6.67-9.6,5.56-4.19-1.12-6.67-5.42-5.56-9.6,1.12-4.19,5.42-6.67,9.6-5.56,4.19,1.12,6.67,5.42,5.56,9.6Z"/>
            <path class="cls-45" d="M23.98,66.54c-.96,3.6-4.65,5.73-8.25,4.77-3.6-.96-5.73-4.65-4.77-8.25.96-3.6,4.65-5.73,8.25-4.77,3.6.96,5.73,4.65,4.77,8.25Z"/>
            <circle class="cls-34" cx="17.46" cy="64.8" r="5.52"/>
            <path class="cls-51" d="M18.8,58.44c-.25-.78-1.73-1.02-3.31-.52s-2.66,1.54-2.41,2.32c.25.78,1.73,1.02,3.31.52,1.58-.5,2.66-1.54,2.41-2.32Z"/>
            <path class="cls-56" d="M10.22,67.81s.95,3.16,6.21,3.05,8.61-4.03,8.61-4.03c0,0,2.13,1.07,1.69,2.8-.45,1.73-4.68,4.99-11.3,4.55-6.62-.45-9.06-4.04-5.2-6.36Z"/>
            <path class="cls-19" d="M10.22,67.81s.95,3.16,6.21,3.05,8.61-4.03,8.61-4.03c0,0,2.13,1.07,1.69,2.8-.45,1.73-4.68,4.99-11.3,4.55-6.62-.45-9.06-4.04-5.2-6.36Z"/>
            <path class="cls-37" d="M10.14,68.55s.73,3.25,6.38,2.88c5.65-.38,7.69-2.97,7.69-2.97,0,0-2.69,4.24-7.23,4.62-4.53.38-8.6-1.82-6.84-4.53Z"/>
          </g>
          <ellipse class="cls-36" cx="78.49" cy="39.46" rx="43.12" ry="39.45" transform="translate(-1.34 2.78) rotate(-2.01)"/>
          <path class="cls-30" d="M70.64,82.98c-1.63,6.11-7.91,9.74-14.02,8.11-6.11-1.63-9.74-7.91-8.11-14.02,1.63-6.11,7.91-9.74,14.02-8.11,6.11,1.63,9.74,7.91,8.11,14.02Z"/>
          <path class="cls-31" d="M28.53,67.75c-1.63,6.11-7.91,9.74-14.02,8.11s-9.74-7.91-8.11-14.02c1.63-6.11,7.91-9.74,14.02-8.11,6.11,1.63,9.74,7.91,8.11,14.02Z"/>
          <path class="cls-38" d="M41.62,53.34s15.03,17.64,52.18,11.46c0,0-11.27,10.13-35.74,6.74-24.47-3.38-16.44-18.2-16.44-18.2Z"/>
          <path class="cls-9" d="M44.78,69.17l-39.22,14.17,1.28,2.94,2.09,1.65-1.78-3.91,7.07-2.56,7.66,1.19,17.15-6.03c.32.38.79.63,1.32.63.95,0,1.72-.77,1.72-1.72s-.77-1.72-1.72-1.72-1.71.76-1.72,1.7l-16.86,5.93-5.23-.81,29.91-10.8-1.67-.66Z"/>
          <polygon class="cls-23" points="79.49 74.35 78.22 74.37 69.58 98.93 70.43 106.99 71.63 107.04 70.79 99.07 79.49 74.35"/>
          <polygon class="cls-12" points="132.39 68.94 131.99 70.06 154.24 78.23 154.41 76.89 132.39 68.94"/>
          <path class="cls-22" d="M84.2,92.56c-.43,0-.81.16-1.12.42l-3.34-3.7,4.1-15.1-1.24.07-4.17,15.35,4.07,4.5c0,.06-.02.12-.02.18,0,.95.77,1.72,1.72,1.72s1.72-.77,1.72-1.72-.77-1.72-1.72-1.72Z"/>
          <path class="cls-6" d="M130.99,86.62c-.78,0-1.44.53-1.65,1.24l-29.93,5.11-.18.03-5.88,5.67,1.84-.13,4.6-4.44,29.64-5.06c.27.6.87,1.01,1.56,1.01.95,0,1.72-.77,1.72-1.72s-.77-1.72-1.72-1.72Z"/>
          <polygon class="cls-14" points="132.39 68.94 132.07 69.32 154.32 77.49 154.41 76.89 132.39 68.94"/>
          <path class="cls-8" d="M134.15,74.38l12.65-6s-3.34-1.66-5.92-2.54l-12.71,5.45,5.99,3.09Z"/>
          <g>
            <path class="cls-39" d="M109.2,75.28c.7-11.1,9.77-30.42,62.56-35.82,0,0-36.86,14.46-37.61,34.92l-17.47,6.48c-3.78,1.4-7.73-1.56-7.47-5.57Z"/>
            <path class="cls-11" d="M109.2,75.28c.7-11.1,9.77-30.42,62.56-35.82,0,0-36.86,14.46-37.61,34.92l-17.47,6.48c-3.78,1.4-7.73-1.56-7.47-5.57Z"/>
            <path class="cls-13" d="M171.76,39.46c-47.63,8.8-55.08,41.4-55.08,41.4l17.47-6.48c.74-20.46,37.61-34.92,37.61-34.92Z"/>
            <path class="cls-25" d="M124.83,54.53s-13.43,9.07-12.51,17.29c.92,8.23,12.51-17.29,12.51-17.29Z"/>
          </g>
          <path class="cls-4" d="M130.99,86.62c-.78,0-1.44.53-1.65,1.24l-29.93,5.11-.18.03-5.88,5.67,1.53-.72,4.6-4.44,29.94-5.21c.27.6.87,1.01,1.56,1.01.95,0,1.34-.67,1.34-1.24,0-.73-.39-1.46-1.34-1.46Z"/>
          <polygon class="cls-10" points="78.85 74.37 78.22 74.37 69.58 98.93 70.43 106.99 71 107.06 70.15 99.09 78.85 74.37"/>
          <path class="cls-16" d="M83.87,93.27c-.43,0-.81.16-1.12.42l-3.66-4.41,4.1-15.1-.59.07-4.17,15.35,4.07,4.5c0,.06-.02.12-.02.18,0,.95.77,1.72,1.72,1.72s1.13-.87,1.13-1.32c0-.95-.69-1.4-1.47-1.41Z"/>
          <path class="cls-21" d="M44.78,69.17l-39.22,14.17,1.28,2.94,1.3,1.33-1.78-3.91,8.18-2.99,7.35,1.19,17.16-5.95c.32.38.79.63,1.32.63.95,0,1.55-.57,1.49-1.31-.06-.8-.54-1.45-1.49-1.45s-1.71.76-1.72,1.7l-16.86,5.93-6.03-1.14,29.91-10.8-.87-.33Z"/>
        </g>
      </g>
    </g>
  </g>
</svg>